<?xml version="1.0" encoding="utf-8"?>
<!-- Generator: Adobe Illustrator 23.0.1, SVG Export Plug-In . SVG Version: 6.00 Build 0)  -->
<svg version="1.1" id="Layer_1" xmlns="http://www.w3.org/2000/svg" xmlns:xlink="http://www.w3.org/1999/xlink" x="0px" y="0px"
	 viewBox="0 0 1920 655" style="enable-background:new 0 0 1920 655;" xml:space="preserve">
<style type="text/css">
	.st0{fill:#00CFFF;}
	.st1{fill-rule:evenodd;clip-rule:evenodd;fill:#00C6FB;}
	.st2{opacity:0.8;}
	.st3{opacity:0.5;}
	.st4{opacity:0.3;fill-rule:evenodd;clip-rule:evenodd;fill:#019EE9;enable-background:new    ;}
	.st5{fill:#78AF00;}
	.st6{fill-rule:evenodd;clip-rule:evenodd;fill:#FFFFFF;}
	.st7{fill-rule:evenodd;clip-rule:evenodd;fill:#66A500;}
	.st8{opacity:0.2;fill-rule:evenodd;clip-rule:evenodd;fill:#D8EA76;enable-background:new    ;}
	.st9{fill-rule:evenodd;clip-rule:evenodd;fill:#8BBB18;}
	.st10{fill-rule:evenodd;clip-rule:evenodd;fill:#00733B;}
</style>
<rect id="Rectangle_1_copy" class="st0" width="1920" height="570"/>
<path id="Shape_1_copy_2" class="st1" d="M111.2,133.4h-4C106.1,109.7,86.4,91,62.6,91c-20.3,0-37.9,14.2-42.9,33.4
	c-6.3-6.3-14.8-9.7-23.7-9.7c-16.8,0-30.9,12.7-32.8,29.4c-5.8,1-11.3,3.5-15.8,7.4c-3.7-4.7-9.3-7.5-15.3-7.4
	c-10,0.1-18,8.2-18.1,18.1c0,10.2,8.5,18.7,18.1,18.7h180.8c13.1-1,23-12.4,22-25.5C134,143.1,123.7,133.5,111.2,133.4z"/>
<path id="Shape_1_copy_3" class="st1" d="M1979.2,194.4h-4c-1.2-23.8-20.8-42.4-44.6-42.5c-20.3,0-37.9,14.2-42.9,33.4
	c-13-13-34.1-12.9-47.1,0.2c-5.2,5.3-8.6,12.2-9.4,19.6c-5.8,1-11.3,3.5-15.8,7.4c-3.7-4.7-9.3-7.5-15.3-7.4
	c-10,0.1-18,8.2-18.1,18.1c0,10.2,8.5,18.7,18.1,18.7h180.8c13.1-1,23-12.4,22-25.5C2002,204.1,1991.7,194.5,1979.2,194.4z"/>
<g id="bg_city" class="st2">
	<g id="buildings" class="st3">
		
			<image style="overflow:visible;opacity:0.9;enable-background:new    ;" width="14" height="21" id="Vector_Smart_Object_copy_5" xlink:href="DA25B8FC61871F0C.png"  transform="matrix(1 0 0 1 1277 141)">
		</image>
		
			<image style="overflow:visible;opacity:0.6;enable-background:new    ;" width="11" height="17" id="Vector_Smart_Object_copy_7" xlink:href="DA25B8FC61871F0D.png"  transform="matrix(1 0 0 1 557 158)">
		</image>
		<path id="Shape_4_copy_4" class="st4" d="M708.6,141h-2.9c-1,0.1-2-0.7-2.1-1.7c0,0,0-0.1,0-0.1c0-1,0.8-1.8,1.8-1.8
			c0,0,0,0,0.1,0h0.4c3.3-0.1,5.8-2.9,5.7-6.1c-0.1-3.1-2.6-5.5-5.7-5.7h-34.1c-3.3,0.1-5.8,2.9-5.7,6.1c0.1,3.1,2.6,5.5,5.7,5.7
			h1.1c1-0.1,1.8,0.7,1.9,1.7c0,0,0,0,0,0c0,1.1-0.9,1.9-1.9,2h-13c-4.9,0-8.8,4-8.8,8.8l0,0c0,4.9,3.9,8.8,8.8,8.8h48.7
			c4.9,0,8.8-4,8.8-8.8l0,0C717.4,145,713.4,141.1,708.6,141z"/>
		
			<image style="overflow:visible;opacity:0.6;enable-background:new    ;" width="705" height="150" id="Vector_Smart_Object_copy" xlink:href="DA25B8FC61871F0B.png"  transform="matrix(1 0 0 1 244 142)">
		</image>
		
			<image style="overflow:visible;opacity:0.6;enable-background:new    ;" width="643" height="165" id="Vector_Smart_Object_copy_2" xlink:href="DA25B8FC61871F14.png"  transform="matrix(1 0 0 1 955 140)">
		</image>
		
			<image style="overflow:visible;enable-background:new    ;" width="977" height="244" id="Vector_Smart_Object" xlink:href="DA25B8FC61871F17.png"  transform="matrix(1 0 0 1 558 61)">
		</image>
		
			<image style="overflow:visible;enable-background:new    ;" width="261" height="174" id="Vector_Smart_Object-2" xlink:href="DA25B8FC61871F15.png"  transform="matrix(1 0 0 1 297 131)">
		</image>
	</g>
</g>
<rect id="Rectangle_1_copy_2" y="267" class="st5" width="1920" height="388"/>
<g>
	<path class="st6" d="M1231.3,61.2h-1.6c1.2-2,1.7-4.2,1.6-6.5c0.2-8.2-6.3-14.9-14.5-15.1c-0.2,0-0.4,0-0.6,0
		c-7.5-0.1-13.9,5.5-14.7,13c-3.1-3.1-7.2-4.8-11.5-4.9c-7.9,0.2-14.3,6.4-14.7,14.2c-1.7-0.5-3.5-0.7-5.3-0.8
		c-8.3-0.1-15.1,6.6-15.1,15c0,0,0,0.1,0,0.1c0,8.2,6.9,14.7,15.1,14.7h61.3c8.2,0,15.1-6.5,15.1-14.7
		C1246.4,67.9,1239.7,61.2,1231.3,61.2C1231.3,61.2,1231.3,61.2,1231.3,61.2z"/>
	<path class="st6" d="M432.2,140h-2c-0.5-12.3-10.9-21.9-23.3-21.4c-9.8,0.4-18.3,7.3-20.7,16.8c-6.5-6.5-17.1-6.5-23.6,0
		c-2.7,2.7-4.3,6.2-4.8,9.9c-2.9,0.5-5.7,1.8-7.9,3.7c-1.8-2.4-4.7-3.8-7.7-3.7c-5,0.1-9,4.1-9.1,9.1c0,5.1,4,9.2,9.1,9.4h90.8
		c6.6-0.5,11.5-6.3,11-12.9C443.6,144.8,438.5,140,432.2,140z"/>
	<path id="Shape_1_copy" class="st6" d="M1578.9,135.1h-1.7c-0.5-10.5-9.4-18.7-20-18.2c-8.4,0.4-15.5,6.2-17.6,14.3
		c-5.6-5.6-14.7-5.5-20.2,0.1c-2.2,2.3-3.7,5.2-4,8.4c-2.5,0.4-4.9,1.5-6.8,3.2c-1.6-2-4-3.2-6.6-3.2c-4.3,0-7.7,3.5-7.8,7.8
		c0,4.3,3.4,7.9,7.8,8h77.7c5.6-0.4,9.9-5.3,9.4-11C1588.7,139.3,1584.3,135.2,1578.9,135.1z"/>
</g>
<image style="overflow:visible;enable-background:new    ;" width="278" height="117" id="Vector_Smart_Object-3" xlink:href="DA25B8FC61871F1B.png"  transform="matrix(1 0 0 1 1559 255)">
</image>
<path id="Rounded_Rectangle_2" class="st7" d="M1199.1,435h292.3c7.6,0,13.7,6.1,13.7,13.7c0,7.6-6.1,13.7-13.7,13.7c0,0,0,0,0,0
	h-292.3c-7.6,0-13.7-6.1-13.7-13.7C1185.4,441.2,1191.5,435,1199.1,435C1199.1,435,1199.1,435,1199.1,435z"/>
<path id="Rounded_Rectangle_1" class="st7" d="M377.9,292.3h1112.2c8.4,0,15.2,6.8,15.2,15.2c0,8.4-6.8,15.2-15.2,15.2c0,0,0,0,0,0
	H377.9c-8.4,0-15.2-6.8-15.2-15.2C362.7,299.1,369.5,292.3,377.9,292.3C377.9,292.3,377.9,292.3,377.9,292.3z"/>
<image style="overflow:visible;enable-background:new    ;" width="71" height="92" id="Vector_Smart_Object-4" xlink:href="DA25B8FC61871F1C.png"  transform="matrix(1 0 0 1 1468 193)">
</image>
<image style="overflow:visible;enable-background:new    ;" width="373" height="244" id="Vector_Smart_Object-5" xlink:href="DA25B8FC61871F1F.png"  transform="matrix(1 0 0 1 1127 206)">
</image>
<path class="st8" d="M123.3,388.1h359.5c17-0.2,30.9,13.4,31.1,30.4c0.2,17-13.4,30.9-30.4,31.1c-0.2,0-0.5,0-0.7,0H123.3
	c-17,0.2-30.9-13.4-31.1-30.4s13.4-30.9,30.4-31.1C122.9,388.1,123.1,388.1,123.3,388.1z"/>
<path class="st9" d="M1564.4,496.6h200c8.3,0.2,14.8,7.1,14.6,15.4c-0.2,8-6.6,14.4-14.6,14.6h-63.7c-5.3,0.1-9.6,4.4-9.5,9.7
	c0.1,5.3,4.3,9.5,9.5,9.5l0,0h127.4v0.1c29.4,0.1,53.2,24.1,53,53.6c-0.1,29.3-23.8,52.9-53.1,53h-68.3c-1.3,0.6-2.2,1.9-2.2,3.4
	c0,2,1.7,3.7,3.7,3.6c0,0,0.1,0,0.1,0l0-0.2h142.6c10.9,0.2,19.6,9.3,19.4,20.2c-0.2,10.6-8.8,19.1-19.4,19.4l-125.1,0.1
	c-2.7,0.6-4.7,3.1-4.7,5.9c0.1,2.8,2,5.2,4.7,5.9h53.4c14.1,0,25.5,11.4,25.5,25.5c0,14.1-11.4,25.5-25.5,25.5h1.2
	c-4.2,0-7.6,3.4-7.6,7.6c0,4.2,3.4,7.7,7.6,7.8h94.8c19.5-0.1,35.4,15.6,35.5,35.2c0.1,19.5-15.6,35.4-35.2,35.5c-0.1,0-0.2,0-0.4,0
	h-79.6c23.6,17.5,28.5,50.9,11,74.5c-10,13.5-25.9,21.5-42.7,21.5h-68.3c-1.3,0.6-2.2,1.9-2.1,3.4c0,2,1.7,3.6,3.7,3.6
	c0,0,0.1,0,0.1,0l0-0.2H1893c10.9,0,19.8,8.9,19.8,19.8c0,10.9-8.9,19.8-19.8,19.8l-125.1,0.1c-2.7,0.6-4.7,3.1-4.7,5.9
	c0.1,2.8,2,5.1,4.7,5.8h53.4c14.1-0.3,25.7,10.9,26,25c0.3,14.1-10.9,25.7-25,26c-0.3,0-0.7,0-1,0h1.2c-4.2,0-7.6,3.4-7.6,7.6
	c0,4.2,3.4,7.7,7.6,7.8h26.2c19.5,0,35.4,15.8,35.4,35.3s-15.8,35.4-35.3,35.4c0,0-0.1,0-0.1,0h-113.7c0.3,1.1,0.4,2.3,0.4,3.4
	c0,8.7-7.1,15.8-15.8,15.8c0,0,0,0-0.1,0l-60.8-0.3c0,0-32.9-0.6-44.9-0.6c-16.9,0-30.7-13.7-30.7-30.7s13.7-30.7,30.7-30.7
	c7.8,0,15.3,3,21,8.3l2.2-25.4c-6.5-3.3-10.6-10-10.6-17.3c0-1.5,0.2-2.9,0.5-4.4h-139.2c-23.9,0-43.3-19.4-43.3-43.3
	s19.4-43.3,43.3-43.3h32.1c5.1,0,9.3-4.1,9.3-9.3c0,0,0,0,0,0c0-5.1-4.1-9.1-9.2-9.1c0,0-0.1,0-0.1,0h-101.1
	c-17.3,0-31.3-14-31.3-31.3s14-31.3,31.3-31.3h168c3.3-0.8,5.7-3.7,5.7-7.2c0-3.4-2.4-6.4-5.7-7.1l-104.8-0.1
	c-13.3,0-24.1-10.8-24.1-24.1c0-13.3,10.8-24.1,24.1-24.1h113.5c0.9-3.4,2.4-6.5,4.3-9.4h-46.3c-8.3-0.2-14.8-7.1-14.6-15.4
	c0.2-8,6.6-14.4,14.6-14.6h94.7l0-0.3c-6.5-3.3-10.6-10-10.6-17.3c0-1.5,0.2-2.9,0.5-4.3h-139.2c-23.9,0.1-43.4-19.2-43.5-43.1
	s19.2-43.4,43.1-43.5c0.1,0,0.3,0,0.4,0h32.1c5.1,0,9.3-4.2,9.3-9.3c0,0,0,0,0,0c0-5.1-4.1-9.1-9.2-9.1c0,0-0.1,0-0.1,0h-75.4
	c-17.3-0.1-31.2-14.2-31.1-31.5c0.1-17.1,14-31,31.1-31.1h142.3c3.3-0.8,5.7-3.7,5.7-7.2c0-3.4-2.4-6.4-5.7-7.1l-104.8-0.1
	c-13.3,0-24.1-10.8-24.1-24.1c0-13.3,10.8-24.1,24.1-24.1l0,0h126.3l0,0c2.6,0,4.7-2.2,4.6-4.8c0-2.5-2.1-4.6-4.6-4.6h-54.8
	c-8.3-0.2-14.8-7.1-14.6-15.4C1550,503.2,1556.5,496.8,1564.4,496.6"/>
<path id="Shape_5_copy" class="st9" d="M699.9,1141.7h-200c-8.3-0.2-14.8-7.1-14.6-15.4c0.2-8,6.6-14.4,14.6-14.6h63.7
	c5.3,0,9.6-4.3,9.6-9.6s-4.3-9.6-9.6-9.6l0,0H436.1v-0.1c-29.4,0-53.3-23.9-53.3-53.3c0-29.4,23.9-53.3,53.3-53.3h68.3
	c1.3-0.6,2.2-1.9,2.1-3.4c0-2-1.7-3.7-3.7-3.6c0,0-0.1,0-0.1,0l0,0.2H360.2c-10.9-0.2-19.6-9.3-19.3-20.2
	c0.2-10.6,8.8-19.1,19.3-19.3l125.1-0.1c2.7-0.6,4.7-3.1,4.7-5.9c-0.1-2.8-2-5.2-4.7-5.9h-53.4c-14.1,0.3-25.7-10.9-26-25
	c-0.3-14.1,10.9-25.7,25-26c0.3,0,0.7,0,1,0h-1.2c4.2,0,7.6-3.4,7.6-7.6c0-4.2-3.4-7.7-7.6-7.8h-94.8c-19.5,0-35.4-15.8-35.4-35.4
	c0-19.5,15.8-35.3,35.4-35.3l0,0h79.6c-23.6-17.5-28.5-50.8-11-74.5c10-13.5,25.9-21.5,42.7-21.5h68.3c1.3-0.6,2.2-1.9,2.1-3.4
	c0-2-1.7-3.6-3.7-3.6c0,0-0.1,0-0.1,0l0,0.2H371.3c-10.9,0-19.8-8.9-19.8-19.8c0-10.9,8.9-19.8,19.8-19.8l0,0l125.1-0.1
	c2.7-0.6,4.7-3.1,4.7-5.9c-0.1-2.8-2-5.2-4.7-5.9h-53.4c-14.1,0-25.5-11.4-25.5-25.5c0-14.1,11.4-25.5,25.5-25.5l0,0h-1.2
	c4.2,0,7.6-3.4,7.6-7.6c0-4.2-3.4-7.7-7.6-7.8h-26.2c-19.5,0.1-35.4-15.6-35.5-35.2c-0.1-19.5,15.6-35.4,35.2-35.5
	c0.1,0,0.3,0,0.4,0h113.7c-0.3-1.1-0.4-2.3-0.4-3.4c0-8.7,7.1-15.8,15.8-15.8c0,0,0,0,0,0l60.8,0.3c0,0,32.9,0.6,44.9,0.6
	c16.9,0,30.7,13.7,30.7,30.7c0,16.9-13.7,30.7-30.7,30.7c-7.8,0-15.3-3-21-8.3l-2.2,25.4c6.5,3.3,10.6,10,10.6,17.3
	c0,1.5-0.2,2.9-0.5,4.4h139.2c23.9,0,43.3,19.4,43.3,43.3s-19.4,43.3-43.3,43.3h-32.1c-5.1,0-9.3,4.1-9.3,9.3c0,0,0,0,0,0
	c0,5.1,4.1,9.1,9.2,9.1c0,0,0.1,0,0.1,0h101.1c17.3,0.1,31.2,14.2,31.1,31.5c-0.1,17.1-14,31-31.1,31.1h-168
	c-3.3,0.8-5.7,3.7-5.7,7.1c0,3.4,2.4,6.4,5.7,7.1l104.8,0.1c13.3,0,24.1,10.8,24.1,24.1c0,13.3-10.8,24.1-24.1,24.1H669
	c-0.9,3.4-2.4,6.5-4.3,9.4h46.3c8.3,0.2,14.9,7,14.7,15.3c-0.2,8-6.6,14.5-14.7,14.7h-94.7l0,0.3c6.5,3.3,10.6,10,10.6,17.3
	c0,1.5-0.2,2.9-0.5,4.3h139.2c23.9,0,43.3,19.4,43.3,43.3s-19.4,43.3-43.3,43.3h-32.1c-5.1,0-9.3,4.1-9.3,9.3c0,0,0,0,0,0
	c0,5.1,4.1,9.1,9.2,9.1c0,0,0.1,0,0.1,0h75.4c17.3,0,31.3,14,31.3,31.3s-14,31.3-31.3,31.3H666.5c-3.3,0.8-5.7,3.7-5.7,7.2
	c0,3.4,2.4,6.4,5.7,7.1l104.8,0.1c13.3,0,24.1,10.8,24.1,24.1c0,13.3-10.8,24-24.1,24.1H645.1l0,0c-2.6,0.1-4.7,2.2-4.6,4.8
	c0.1,2.5,2.1,4.6,4.6,4.6h54.8c8.3,0.2,14.8,7.1,14.6,15.4C714.3,1135.1,707.8,1141.5,699.9,1141.7"/>
<path class="st10" d="M1189.8,415.6c-0.5,0-0.9,0-1.4,0.2c-0.6-9.9-8.5-17.8-18.2-17.8c-8.5,0-15.4,5.9-17.6,14
	c-2.4-2.7-5.9-4.3-9.5-4.3c-7,0.1-12.7,5.4-13.4,12.4c-2.4,0.4-4.6,1.4-6.3,3.1c-2.5-3.3-7.3-4-10.6-1.5c-3.3,2.5-4,7.3-1.5,10.6
	c1.4,1.9,3.6,3,6,3h73.1c5.4-0.4,9.5-5.1,9.1-10.5C1199.1,419.7,1194.9,415.7,1189.8,415.6z"/>
<image style="overflow:visible;enable-background:new    ;" width="107" height="223" id="Vector_Smart_Object-6" xlink:href="8773BC7A18877D1B.png"  transform="matrix(1 0 0 1 343 203)">
</image>
<image style="overflow:visible;enable-background:new    ;" width="61" height="35" id="Vector_Smart_Object-7" xlink:href="8773BC7A18877D19.png"  transform="matrix(1 0 0 1 658 61)">
</image>
</svg>
